<svg width="484" height="58" viewBox="0 0 484 58" fill="none" xmlns="http://www.w3.org/2000/svg">
<rect x="1" y="1" width="482" height="56" rx="4" fill="#FFF5C0" stroke="#F1F1F1"/>
<path d="M453.438 29.6425C453.163 29.4176 452.806 29.2955 452.438 29.3009C452.069 29.3062 451.716 29.4385 451.45 29.6712C451.184 29.9039 451.024 30.2199 451.002 30.5556C450.981 30.8914 451.099 31.2222 451.334 31.4816L454.577 34.5868C454.713 34.7168 454.876 34.8204 455.057 34.8913C455.237 34.9623 455.432 34.9993 455.629 35C455.825 35.001 456.019 34.9662 456.199 34.8975C456.38 34.8288 456.544 34.7277 456.681 34.6002L466.585 25.2712C466.719 25.1452 466.825 24.9963 466.896 24.833C466.967 24.6697 467.003 24.4952 467 24.3194C466.997 24.1437 466.957 23.9702 466.88 23.8088C466.804 23.6474 466.694 23.5013 466.556 23.3787C466.418 23.2562 466.254 23.1597 466.075 23.0948C465.896 23.0298 465.705 22.9977 465.512 23.0001C465.32 23.0026 465.13 23.0397 464.953 23.1092C464.776 23.1787 464.616 23.2794 464.481 23.4054L455.643 31.7482L453.438 29.6425Z" fill="#27AE60"/>
</svg>
